<?xml version="1.0" encoding="UTF-8"?>
<!DOCTYPE svg PUBLIC "-//W3C//DTD SVG 1.1//EN" "http://www.w3.org/Graphics/SVG/1.1/DTD/svg11.dtd">
<svg xmlns="http://www.w3.org/2000/svg" version="1.1" width="400px" height="400px" style="shape-rendering:geometricPrecision; text-rendering:geometricPrecision; image-rendering:optimizeQuality; fill-rule:evenodd; clip-rule:evenodd" xmlns:xlink="http://www.w3.org/1999/xlink">
<g><path style="opacity:0.947" fill="#000000" d="M 291.5,113.5 C 297.762,112.872 303.762,113.705 309.5,116C 310.46,117.419 311.293,118.919 312,120.5C 312.577,134.082 312.577,147.749 312,161.5C 315.155,133.676 329.988,124.176 356.5,133C 358.617,134.731 360.117,136.898 361,139.5C 364.029,152.956 358.862,158.956 345.5,157.5C 344.719,156.263 343.719,155.263 342.5,154.5C 339.284,158.41 338.784,162.743 341,167.5C 341.804,168.804 342.971,169.471 344.5,169.5C 347.262,168.241 349.596,166.407 351.5,164C 355.987,162.622 359.487,163.788 362,167.5C 365.439,180.116 361.272,188.95 349.5,194C 342.086,194.89 334.753,194.557 327.5,193C 321.448,190.737 317.281,186.57 315,180.5C 314.667,183.5 314.333,186.5 314,189.5C 313.5,190.667 312.667,191.5 311.5,192C 303.833,192.667 296.167,192.667 288.5,192C 286.667,191.5 285.5,190.333 285,188.5C 284.5,178.172 284.334,167.839 284.5,157.5C 281.091,157.751 277.758,157.417 274.5,156.5C 273.243,166.209 273.576,175.875 275.5,185.5C 275.885,188.371 274.885,190.537 272.5,192C 264.833,192.667 257.167,192.667 249.5,192C 247.348,189.923 245.848,187.423 245,184.5C 241.956,188.861 237.789,191.694 232.5,193C 225.5,193.667 218.5,193.667 211.5,193C 204.943,190.985 200.443,186.818 198,180.5C 197.206,183.471 196.539,186.471 196,189.5C 195.5,190.667 194.667,191.5 193.5,192C 170.584,192.284 147.584,192.284 124.5,192C 122.667,191.5 121.5,190.333 121,188.5C 120.052,190.57 118.552,192.07 116.5,193C 103.776,193.061 91.109,193.061 78.5,193C 76.4127,192.208 74.5793,191.041 73,189.5C 70.5452,185.469 68.8786,181.136 68,176.5C 67.6667,179.833 67.3333,183.167 67,186.5C 66.3147,189.057 64.8147,190.891 62.5,192C 54.8333,192.667 47.1667,192.667 39.5,192C 38.5838,191.626 37.7504,191.126 37,190.5C 35.8035,187.911 34.8035,185.244 34,182.5C 33.6667,184.833 33.3333,187.167 33,189.5C 32.5,190.667 31.6667,191.5 30.5,192C 22.8333,192.667 15.1667,192.667 7.5,192C 5.66667,191.5 4.5,190.333 4,188.5C 3.06845,166.796 3.40179,145.13 5,123.5C 5.68532,120.943 7.18532,119.109 9.5,118C 16.5,117.333 23.5,117.333 30.5,118C 33.5827,118.786 35.7494,120.619 37,123.5C 37.2949,121.069 38.4616,119.236 40.5,118C 47.8333,117.333 55.1667,117.333 62.5,118C 64.3333,118.5 65.5,119.667 66,121.5C 67.0732,127.449 67.7399,133.449 68,139.5C 68.117,136.089 69.617,133.589 72.5,132C 87.0688,132.196 101.735,132.196 116.5,132C 118.538,133.236 119.705,135.069 120,137.5C 120.896,134.86 122.396,132.693 124.5,131C 137.686,130.696 150.686,130.863 163.5,131.5C 179.032,125.198 190.199,129.531 197,144.5C 200.326,136.507 206.159,131.341 214.5,129C 220.833,128.333 227.167,128.333 233.5,129C 238.355,130.505 242.188,133.338 245,137.5C 245.068,134.681 246.234,132.514 248.5,131C 258.008,130.636 267.508,130.136 277,129.5C 279.557,129.555 282.057,129.888 284.5,130.5C 285.325,126.878 285.825,123.211 286,119.5C 287.36,116.977 289.193,114.977 291.5,113.5 Z M 244.5,158.5 C 245.776,159.386 245.776,160.386 244.5,161.5C 243.913,160.767 243.913,159.767 244.5,158.5 Z"/></g>
<g><path style="opacity:0.896" fill="#fefffe" d="M 293.5,118.5 C 297.637,118.146 301.637,118.646 305.5,120C 308.448,124.341 308.115,128.341 304.5,132C 294.204,135.344 289.704,131.844 291,121.5C 292.045,120.627 292.878,119.627 293.5,118.5 Z"/></g>
<g><path style="opacity:0.964" fill="#fefffe" d="M 11.5,122.5 C 17.9522,122.084 24.2855,122.584 30.5,124C 36.2108,131.247 41.0441,139.081 45,147.5C 45.0743,139.091 44.241,130.758 42.5,122.5C 48.7576,122.19 54.9242,122.524 61,123.5C 62.6063,143.79 62.9397,164.123 62,184.5C 61.6258,185.416 61.1258,186.25 60.5,187C 54.1667,187.667 47.8333,187.667 41.5,187C 38.7359,178.042 35.5692,169.209 32,160.5C 30.503,156.835 28.503,153.502 26,150.5C 25.3333,155.5 25.3333,160.5 26,165.5C 27.069,172.815 27.9023,180.148 28.5,187.5C 21.9102,187.811 15.4102,187.478 9,186.5C 8.33333,168.167 8.33333,149.833 9,131.5C 9.19904,128.278 10.0324,125.278 11.5,122.5 Z"/></g>
<g><path style="opacity:0.925" fill="#fefffe" d="M 216.5,133.5 C 222.593,133.139 228.593,133.639 234.5,135C 244.396,142.516 245.062,150.849 236.5,160C 231.613,162.277 226.613,164.277 221.5,166C 218.141,168.034 217.808,170.368 220.5,173C 229.076,175.199 235.743,172.699 240.5,165.5C 242.695,167.059 243.695,169.226 243.5,172C 243.185,180.645 238.851,185.978 230.5,188C 209.396,191.78 199.062,182.947 199.5,161.5C 198.592,147.953 204.259,138.62 216.5,133.5 Z"/></g>
<g><path style="opacity:0.954" fill="#fefffe" d="M 169.5,134.5 C 179.848,132.256 187.015,135.923 191,145.5C 192.815,159.465 192.981,173.465 191.5,187.5C 185.167,187.5 178.833,187.5 172.5,187.5C 173.645,180.203 174.645,172.87 175.5,165.5C 174.85,160.851 174.35,156.184 174,151.5C 173.072,148.965 171.238,147.965 168.5,148.5C 167.813,161.493 167.146,174.493 166.5,187.5C 160.167,187.5 153.833,187.5 147.5,187.5C 150.266,175.994 151.099,164.327 150,152.5C 147.242,148.351 144.909,148.684 143,153.5C 142.385,164.565 142.718,175.565 144,186.5C 138,187.833 132,187.833 126,186.5C 125.333,170.167 125.333,153.833 126,137.5C 128.894,136.22 132.061,135.554 135.5,135.5C 139.15,135.624 142.65,136.291 146,137.5C 151.712,134.886 157.379,134.886 163,137.5C 165.294,136.578 167.461,135.578 169.5,134.5 Z"/></g>
<g><path style="opacity:0.946" fill="#fefffe" d="M 272.5,134.5 C 284.201,133.24 288.368,138.24 285,149.5C 283.152,152.041 280.652,153.041 277.5,152.5C 275.17,145.95 272.337,145.95 269,152.5C 268.786,157.885 268.286,163.219 267.5,168.5C 268.779,174.783 269.779,181.116 270.5,187.5C 264.167,187.5 257.833,187.5 251.5,187.5C 250.556,170.195 250.223,152.861 250.5,135.5C 255.844,135.334 261.177,135.501 266.5,136C 267.191,137.067 267.691,138.234 268,139.5C 269.707,137.963 271.207,136.296 272.5,134.5 Z"/></g>
<g><path style="opacity:0.925" fill="#fefffe" d="M 336.5,134.5 C 342.105,133.908 347.439,134.741 352.5,137C 357.311,141.791 357.644,146.791 353.5,152C 352.391,152.638 351.225,153.138 350,153.5C 342.706,145.886 337.706,147.219 335,157.5C 333.891,163.229 335.058,168.395 338.5,173C 345.25,175.972 350.75,174.472 355,168.5C 360.106,177.764 357.606,184.597 347.5,189C 332.819,192.58 322.986,187.414 318,173.5C 314.625,159.477 318.125,147.644 328.5,138C 331.158,136.522 333.825,135.355 336.5,134.5 Z"/></g>
<g><path style="opacity:0.966" fill="#fefffe" d="M 290.5,135.5 C 296.167,135.5 301.833,135.5 307.5,135.5C 307.149,141.661 306.816,147.828 306.5,154C 307.378,165.187 308.378,176.353 309.5,187.5C 302.91,187.811 296.41,187.478 290,186.5C 289.182,169.426 289.349,152.426 290.5,135.5 Z"/></g>
<g><path style="opacity:0.959" fill="#fefffe" d="M 74.5,136.5 C 80.1667,136.5 85.8333,136.5 91.5,136.5C 91.0695,144.682 90.4028,152.849 89.5,161C 89.5154,164.903 90.0154,168.736 91,172.5C 92.6667,175.167 94.3333,175.167 96,172.5C 96.9734,170.608 97.6401,168.608 98,166.5C 98.3295,156.465 97.8295,146.465 96.5,136.5C 102.5,136.5 108.5,136.5 114.5,136.5C 115.624,153.468 115.791,170.468 115,187.5C 109.593,188.473 104.093,188.807 98.5,188.5C 98.6567,187.127 98.49,185.793 98,184.5C 91.1132,189.312 84.1132,189.645 77,185.5C 73.0626,176.785 71.5626,167.618 72.5,158C 72.6667,152.5 72.8333,147 73,141.5C 73.3519,139.753 73.8519,138.086 74.5,136.5 Z"/></g>
<g><path style="opacity:1" fill="#000000" d="M 220.5,146.5 C 224.138,145.737 225.638,147.07 225,150.5C 222.859,153.321 220.025,154.654 216.5,154.5C 216.343,153.127 216.51,151.793 217,150.5C 218.376,149.295 219.542,147.962 220.5,146.5 Z"/></g>
<g><path style="opacity:0.931" fill="#000000" d="M 169.5,202.5 C 173.516,201.9 177.016,202.9 180,205.5C 182.348,212.042 185.182,218.376 188.5,224.5C 195.678,225.217 202.845,225.883 210,226.5C 220.713,225.858 231.38,225.525 242,225.5C 246.355,225.277 250.522,225.944 254.5,227.5C 251.732,211.777 258.398,205.611 274.5,209C 279.637,211.264 281.971,215.264 281.5,221C 279.964,237.485 280.464,253.985 283,270.5C 283.333,257.5 283.667,244.5 284,231.5C 284.295,229.069 285.462,227.236 287.5,226C 299.167,225.333 310.833,225.333 322.5,226C 328.825,228.799 332.659,233.632 334,240.5C 342.056,225.396 354.556,219.896 371.5,224C 382.878,228.249 387.378,236.415 385,248.5C 384.235,251.196 383.068,253.696 381.5,256C 385.299,258.604 386.966,262.271 386.5,267C 386.456,278.109 381.122,285.109 370.5,288C 363.5,288.667 356.5,288.667 349.5,288C 346.339,286.587 343.339,284.92 340.5,283C 338.208,279.584 336.041,276.084 334,272.5C 330.912,282.096 324.412,287.429 314.5,288.5C 314.666,292.514 314.499,296.514 314,300.5C 313.692,301.308 313.192,301.975 312.5,302.5C 304.549,303.635 296.549,303.802 288.5,303C 286.741,301.992 285.574,300.492 285,298.5C 283.939,293.896 283.273,289.229 283,284.5C 282.5,285.667 281.667,286.5 280.5,287C 272.833,287.667 265.167,287.667 257.5,287C 256.584,286.626 255.75,286.126 255,285.5C 253.727,277.269 253.06,268.936 253,260.5C 251.086,267.661 248.086,274.328 244,280.5C 238.378,290.337 231.045,292.004 222,285.5C 221.333,284.167 220.667,282.833 220,281.5C 214.03,291.019 206.697,292.019 198,284.5C 194.245,279.997 191.245,274.997 189,269.5C 185.434,278.732 178.934,284.899 169.5,288C 162.167,288.667 154.833,288.667 147.5,288C 128.643,282.451 123.143,270.617 131,252.5C 132.41,251.213 133.91,250.046 135.5,249C 133.623,246.749 132.123,244.249 131,241.5C 127.446,225.759 133.28,215.592 148.5,211C 154.157,210.501 159.824,210.334 165.5,210.5C 165.278,206.944 166.611,204.277 169.5,202.5 Z M 160.5,234.5 C 162.264,233.288 163.93,233.621 165.5,235.5C 165.333,235.833 165.167,236.167 165,236.5C 163.67,235.418 162.17,234.751 160.5,234.5 Z M 183.5,237.5 C 184.638,240.304 184.805,243.304 184,246.5C 182.764,245.601 181.93,244.434 181.5,243C 182.32,241.2 182.986,239.366 183.5,237.5 Z M 145.5,257.5 C 145.56,256.957 145.893,256.624 146.5,256.5C 149.382,257.961 152.382,259.127 155.5,260C 156.357,260.689 157.023,261.522 157.5,262.5C 152.366,263.727 148.366,262.061 145.5,257.5 Z"/></g>
<g><path style="opacity:0.913" fill="#fefffe" d="M 171.5,207.5 C 173.39,207.297 174.89,207.963 176,209.5C 177.84,215.344 180.34,220.844 183.5,226C 180.977,231.546 178.311,237.046 175.5,242.5C 174.167,243.833 172.833,243.833 171.5,242.5C 173.165,231.331 168.499,226.831 157.5,229C 154.034,231.661 153.701,234.661 156.5,238C 162.5,240.667 168.5,243.333 174.5,246C 183.534,252.384 186.034,260.884 182,271.5C 174.015,282.831 163.182,286.665 149.5,283C 133.433,278.876 129.1,269.543 136.5,255C 137.167,254.333 137.833,254.333 138.5,255C 140.872,263.371 146.372,268.205 155,269.5C 164.347,267.571 165.847,263.071 159.5,256C 151.168,253.754 144.002,249.587 138,243.5C 132.01,229.649 136.177,220.482 150.5,216C 156.885,215.207 163.218,215.374 169.5,216.5C 170.249,213.473 170.916,210.473 171.5,207.5 Z M 160.5,234.5 C 162.17,234.751 163.67,235.418 165,236.5C 165.167,236.167 165.333,235.833 165.5,235.5C 163.93,233.621 162.264,233.288 160.5,234.5 Z M 145.5,257.5 C 148.366,262.061 152.366,263.727 157.5,262.5C 157.023,261.522 156.357,260.689 155.5,260C 152.382,259.127 149.382,257.961 146.5,256.5C 145.893,256.624 145.56,256.957 145.5,257.5 Z"/></g>
<g><path style="opacity:0.896" fill="#fefffe" d="M 262.5,213.5 C 266.637,213.146 270.637,213.646 274.5,215C 277.448,219.341 277.115,223.341 273.5,227C 263.204,230.344 258.704,226.844 260,216.5C 261.045,215.627 261.878,214.627 262.5,213.5 Z"/></g>
<g><path style="opacity:0.925" fill="#fefffe" d="M 354.5,228.5 C 360.593,228.139 366.593,228.639 372.5,230C 382.396,237.516 383.062,245.849 374.5,255C 369.613,257.277 364.613,259.277 359.5,261C 356.141,263.034 355.808,265.368 358.5,268C 367.076,270.199 373.743,267.699 378.5,260.5C 380.695,262.059 381.695,264.226 381.5,267C 381.185,275.645 376.851,280.978 368.5,283C 347.396,286.78 337.062,277.947 337.5,256.5C 336.592,242.953 342.259,233.62 354.5,228.5 Z"/></g>
<g><path style="opacity:0.952" fill="#fefffe" d="M 189.5,230.5 C 195.167,230.5 200.833,230.5 206.5,230.5C 206.334,236.176 206.501,241.843 207,247.5C 207.105,251.37 207.938,255.037 209.5,258.5C 211.015,256.453 211.849,254.119 212,251.5C 213.087,244.54 213.587,237.54 213.5,230.5C 218.5,230.5 223.5,230.5 228.5,230.5C 228.334,236.176 228.501,241.843 229,247.5C 229.026,251.108 229.859,254.442 231.5,257.5C 233.619,248.647 234.619,239.647 234.5,230.5C 239.511,230.334 244.511,230.501 249.5,231C 252.525,251.241 247.192,268.908 233.5,284C 230.364,285.041 227.864,284.207 226,281.5C 223.984,277.469 221.984,273.469 220,269.5C 217.797,274.744 214.964,279.578 211.5,284C 209.833,284.667 208.167,284.667 206.5,284C 198.436,277.391 193.269,268.891 191,258.5C 189.647,249.225 189.147,239.891 189.5,230.5 Z"/></g>
<g><path style="opacity:0.966" fill="#fefffe" d="M 259.5,230.5 C 265.167,230.5 270.833,230.5 276.5,230.5C 276.149,236.661 275.816,242.828 275.5,249C 276.378,260.187 277.378,271.353 278.5,282.5C 271.91,282.811 265.41,282.478 259,281.5C 258.182,264.426 258.349,247.426 259.5,230.5 Z"/></g>
<g><path style="opacity:0.953" fill="#fefffe" d="M 289.5,230.5 C 299.839,230.334 310.172,230.5 320.5,231C 325.149,233.455 327.983,237.288 329,242.5C 334.15,256.418 331.983,268.918 322.5,280C 318.598,283.205 314.265,284.039 309.5,282.5C 308.823,287.792 308.823,293.126 309.5,298.5C 302.711,299.101 296.211,298.434 290,296.5C 288.178,274.52 288.012,252.52 289.5,230.5 Z"/></g>
<g><path style="opacity:1" fill="#000000" d="M 358.5,241.5 C 362.138,240.737 363.638,242.07 363,245.5C 360.859,248.321 358.025,249.654 354.5,249.5C 354.343,248.127 354.51,246.793 355,245.5C 356.376,244.295 357.542,242.962 358.5,241.5 Z"/></g>
<g><path style="opacity:1" fill="#000000" d="M 307.5,246.5 C 309.144,246.286 310.644,246.62 312,247.5C 313.961,254.474 313.961,261.474 312,268.5C 311,270.167 309.667,271.5 308,272.5C 307.085,271.672 306.419,270.672 306,269.5C 305.333,262.833 305.333,256.167 306,249.5C 306.513,248.473 307.013,247.473 307.5,246.5 Z"/></g>
</svg>
